<svg width="173" height="173" viewBox="0 0 173 173" fill="none" xmlns="http://www.w3.org/2000/svg">
<path fill-rule="evenodd" clip-rule="evenodd" d="M75.9077 0.747096C68.639 1.28331 61.3618 3.41059 54.8937 6.88994C46.5684 11.3684 39.9901 17.6 35.2109 25.536C31.126 32.319 28.7856 39.2629 27.7964 47.5339C27.6789 48.5165 27.6016 55.7016 27.5536 70.1039L27.4834 91.2325H41.0706H54.6579L54.7056 70.1798L54.7532 49.1271L55.0893 47.6615C56.2697 42.5134 58.6459 38.3242 62.4374 34.7067C66.6171 30.7189 71.235 28.5289 76.9659 27.8169C78.7388 27.5965 121.325 27.5965 123.098 27.8169C124.971 28.0496 126.47 28.3711 128.101 28.891C135.339 31.1959 141.616 37.3864 144.083 44.651C144.381 45.5272 144.779 46.927 144.968 47.7615L145.312 49.2788L145.361 72.3419C145.395 87.8325 145.359 95.8043 145.252 96.6208C144.722 100.673 143.205 104.476 140.716 107.994C139.654 109.495 136.75 112.446 135.233 113.565C132.848 115.324 129.905 116.794 127.256 117.551C123.962 118.491 125.397 118.435 102.649 118.499L81.825 118.557V132.061V145.564L103.18 145.512C124.114 145.46 124.581 145.453 126.812 145.131C135.575 143.869 142.646 141.241 149.398 136.736C152.699 134.532 154.787 132.843 157.241 130.388C165.672 121.954 170.917 110.863 172.279 98.5914C172.573 95.9465 172.574 50.4612 172.281 47.6856C171.675 41.9531 170.227 36.5183 167.924 31.3297C166.179 27.3966 163.729 23.3719 160.933 19.8429C159.25 17.7182 155.521 13.9934 153.364 12.2811C146.658 6.95928 138.71 3.23473 130.681 1.65035C125.77 0.681396 127.512 0.73602 100.867 0.715536C87.5147 0.705218 76.2832 0.719329 75.9077 0.747096ZM90.3217 54.9687C89.3584 55.1414 88.2706 55.5292 87.2113 56.0779C85.9033 56.7553 83.7151 58.9811 83.0064 60.3552C81.858 62.5817 81.923 61.6182 81.8643 77.2353L81.8118 91.2325L95.6633 91.2302C111.032 91.2278 110.446 91.2628 112.623 90.216C114.257 89.4305 116.443 87.2379 117.235 85.5904C118.224 83.5329 118.234 83.4147 118.237 73.0111C118.239 64.2019 118.222 63.5989 117.94 62.4959C117.503 60.7864 116.677 59.3248 115.433 58.0607C114.101 56.706 112.77 55.8422 111.196 55.309L109.97 54.8941L100.487 54.8702C95.2717 54.857 90.6972 54.9013 90.3217 54.9687ZM0.5 104.888V118.392H14.0036H27.5072V104.888V91.3842H14.0036H0.5V104.888ZM27.5072 132.048V145.552H41.0867H54.6661V132.048V118.544H41.0867H27.5072V132.048ZM54.6661 159.208V172.712H68.2456H81.825V159.208V145.704H68.2456H54.6661V159.208Z" fill="#FF7A05"/>
</svg>
