<svg width="379" height="399" viewBox="0 0 379 399" fill="none" xmlns="http://www.w3.org/2000/svg">
<path d="M363.777 159.411C362.067 151.467 359.884 143.707 357.148 136.078C354.412 128.45 351.177 121.058 347.468 113.877C343.732 106.669 339.55 99.7769 334.894 93.148C330.238 86.519 325.161 80.232 319.663 74.287C314.165 68.342 308.299 62.7916 302.038 57.6357C295.804 52.4799 289.254 47.7449 282.362 43.4834C275.496 39.1956 268.367 35.4077 260.976 32.0932C253.584 28.7787 246.008 25.964 238.248 23.6755C230.488 21.3606 222.596 19.5981 214.599 18.3618C206.602 17.1254 198.553 16.4152 190.451 16.2573C182.349 16.0995 174.273 16.4941 166.25 17.4148C158.201 18.3355 150.256 19.7823 142.391 21.7815C134.552 23.7807 126.871 26.2797 119.374 29.3048C111.85 32.3299 104.564 35.8549 97.5403 39.8533C90.4905 43.8517 83.7563 48.2973 77.3115 53.2164C70.8667 58.1355 64.7901 63.4492 59.0556 69.1575C50.822 77.3911 43.4565 86.3349 36.9327 95.9627C35.0125 98.5143 33.3026 101.197 31.7769 104.012C28.6202 109.299 25.753 114.718 23.1487 120.295C20.5445 125.898 18.2296 131.58 16.2041 137.394C14.1786 143.207 12.4687 149.1 11.0483 155.097C9.62777 161.095 8.52294 167.145 7.70747 173.248C6.91831 179.324 6.41851 185.454 6.26068 191.609C6.07654 197.764 6.20806 203.92 6.65525 210.049C7.12875 216.178 7.89161 222.281 8.94382 228.358C10.0223 234.408 11.4165 240.406 13.1001 246.324C14.7836 252.243 16.7565 258.056 19.0451 263.765C21.3337 269.499 23.8853 275.076 26.7526 280.521C29.5935 285.993 32.7239 291.28 36.091 296.41C39.4844 301.539 43.1408 306.511 47.034 311.272C50.9272 316.033 55.0571 320.584 59.4238 324.925C63.7905 329.265 68.3414 333.369 73.129 337.262C77.9165 341.129 82.8882 344.759 88.0178 348.126C93.1736 351.493 98.4873 354.597 103.959 357.412C109.43 360.253 115.007 362.778 120.742 365.04C126.476 367.303 132.29 369.249 138.235 370.906C144.153 372.59 150.151 373.932 156.201 374.984C162.278 376.036 168.381 376.773 174.51 377.193C180.665 377.614 186.794 377.72 192.95 377.535C199.105 377.325 205.235 376.825 211.337 375.983C217.44 375.168 223.464 374.037 229.462 372.59C235.433 371.143 241.326 369.381 247.139 367.355C252.953 365.303 258.634 362.962 264.185 360.332C269.762 357.701 275.181 354.808 280.442 351.625C285.729 348.442 290.806 345.022 295.725 341.313C300.644 337.604 305.353 333.684 309.877 329.502C314.402 325.319 318.69 320.926 322.767 316.297C326.818 311.667 330.659 306.853 334.236 301.855C337.787 296.831 341.102 291.675 344.153 286.308C347.205 280.968 349.967 275.471 352.466 269.841C353.544 267.605 354.491 265.317 355.307 262.949C363.593 241.747 367.723 219.756 367.697 197.002C367.697 184.48 366.408 172.117 363.882 159.858C363.856 159.701 363.83 159.569 363.777 159.411ZM301.091 76.7334C302.117 77.733 303.143 78.7326 304.169 79.7585C320.084 95.5944 332.237 113.929 340.681 134.737C341.102 135.763 340.97 136.683 340.26 137.551C339.576 138.393 338.682 138.735 337.603 138.551C332.29 137.657 326.923 137.288 321.557 137.42C319.505 137.473 317.664 136.841 316.085 135.526C314.507 134.237 313.508 132.58 313.139 130.554C309.93 112.482 305.274 95.7785 299.276 81.2053C298.934 80.3899 298.592 79.5481 298.25 78.7326C297.856 77.8646 298.04 77.128 298.829 76.5756C299.618 76.0232 300.381 76.0758 301.091 76.7334ZM318.269 182.797C318.242 181.85 318.69 181.218 319.584 180.929C320.478 180.613 321.215 180.85 321.767 181.639C323.109 183.533 324.424 185.454 325.687 187.374C327.344 189.925 328.896 192.451 330.317 194.976C331.316 196.739 331.132 198.37 329.764 199.843C327.844 201.973 325.74 204.183 323.451 206.472C322.609 207.287 321.767 208.129 320.899 208.971C320.373 209.444 319.768 209.549 319.111 209.234C318.427 208.944 318.111 208.444 318.111 207.708C318.216 204.998 318.295 202.263 318.348 199.527C318.427 193.898 318.4 188.321 318.269 182.797ZM90.622 61.9498C104.669 51.9011 119.9 44.2463 136.341 38.9852C152.782 33.7241 169.643 31.1199 186.9 31.1725C196.054 31.1462 205.156 31.909 214.205 33.4085C215.388 33.5926 216.151 34.2765 216.441 35.4603C216.756 36.6177 216.441 37.591 215.494 38.3539C206.813 45.1407 198.763 55.1893 191.661 68.2105C190.793 69.7888 189.53 70.9462 187.847 71.6565C186.189 72.3404 184.48 72.4456 182.743 71.9721C159.148 65.3169 135.946 62.1865 114.481 62.9494C106.958 63.1861 99.4606 63.9753 92.0425 65.3169C91.0692 65.4747 90.3853 65.1064 90.017 64.1858C89.6224 63.2914 89.8329 62.5285 90.622 61.9498ZM66.9472 309.641C63.4749 303.065 67.9731 287.808 90.8588 264.659C91.4375 264.107 91.8584 263.423 92.1477 262.66C92.4371 261.897 92.5423 261.134 92.516 260.319C92.4634 259.503 92.253 258.74 91.8584 258.03C91.4901 257.294 90.9903 256.689 90.359 256.189C89.4383 255.479 88.5176 254.742 87.6232 254.005C86.4921 253.085 85.1768 252.664 83.73 252.743C82.2569 252.822 81.0206 253.374 79.9683 254.4L79.074 255.321C67.6311 267.053 59.6343 277.917 55.1624 287.703C54.5047 289.07 53.4262 289.833 51.9005 289.939C50.4011 290.044 49.2174 289.491 48.3493 288.229C39.4054 274.708 32.6187 260.161 27.9626 244.641C23.3329 229.094 21.018 213.206 21.0706 197.002C21.0706 185.322 22.2543 173.8 24.6744 162.384C24.8323 161.516 25.3584 161.068 26.2528 161.016C27.1208 160.99 27.6996 161.384 27.9363 162.252C31.356 173.616 36.959 185.348 44.7191 197.238C55.1361 213.232 68.8675 228.594 85.1505 242.694C90.7009 247.508 96.567 252.164 102.696 256.689C115.454 266.053 128.87 274.366 142.917 281.652C149.283 284.967 155.465 288.097 161.804 290.964C165.487 292.622 169.196 292.727 172.958 291.254C175.957 290.096 178.955 288.86 182.007 287.624C183.638 286.913 184.874 285.782 185.663 284.178C186.453 282.573 186.637 280.916 186.189 279.18L185.953 278.206C180.955 257.188 178.193 233.54 177.851 208.76C177.851 208.471 177.851 208.155 177.851 207.866C177.851 206.498 177.851 205.156 177.824 203.788C177.824 203.368 177.824 202.631 177.824 202.184C177.824 202.026 177.824 201.842 177.824 201.684C177.824 200.132 177.824 198.58 177.877 197.028C177.956 192.793 178.114 188.558 178.324 184.375C179.876 154.492 184.927 126.398 193.003 102.749C193.371 101.671 193.318 100.592 192.792 99.5665C192.292 98.5406 191.477 97.8303 190.398 97.4621C188.268 96.6992 186.137 96.0153 184.006 95.3576C182.928 95.0157 181.875 95.1209 180.876 95.6207C179.876 96.1205 179.192 96.9097 178.824 97.9882C170.091 123.636 164.698 154.098 163.251 186.322C163.172 188.347 162.594 190.241 161.541 192.004C160.489 193.766 159.095 195.16 157.332 196.212C138.235 207.524 120.715 219.519 105.59 231.593C104.011 232.856 102.196 233.461 100.171 233.408C98.1717 233.356 96.3829 232.698 94.8572 231.356C79.7053 218.204 66.9209 203.946 57.2668 189.11C38.3006 159.964 33.7498 132.527 44.5876 111.851L44.6665 111.72C46.0344 109.431 47.4549 107.169 48.9543 104.959C61.3441 88.5445 84.4403 79.0483 115.007 77.9698C116.927 77.8909 118.874 77.8646 120.847 77.8646C139.629 77.8646 159.779 80.9686 180.271 86.861L181.612 87.2556L182.638 87.5712C187.373 88.9917 192.134 90.5437 196.896 92.2536L197.211 92.3851C198.448 92.8323 199.684 93.2795 200.92 93.753L202.104 94.2002L203.209 94.6211C213.416 98.5669 223.385 103.091 233.092 108.142C251.611 117.691 268.894 129.134 284.914 142.471C255.872 149.126 222.096 161.963 188.136 179.272C186.453 180.14 185.558 181.508 185.453 183.402C185.321 185.506 185.164 189.741 185.058 193.082C185.058 193.582 185.164 194.055 185.374 194.476C185.611 194.923 185.926 195.265 186.347 195.529C186.768 195.765 187.215 195.923 187.715 195.923C188.189 195.949 188.662 195.844 189.083 195.607C222.675 177.983 256.267 164.778 285.071 157.807C286.36 157.491 287.544 156.939 288.649 156.202C289.754 155.439 290.674 154.492 291.437 153.387C292.174 152.282 292.7 151.072 293.016 149.783C293.305 148.468 293.358 147.179 293.173 145.838C292.647 141.997 292.042 138.235 291.385 134.526C290.543 129.686 288.175 125.767 284.282 122.794C270.34 112.193 255.557 102.855 240.01 94.8052C229.436 89.3074 218.598 84.4409 207.497 80.1794C206.313 79.7322 205.524 78.9168 205.103 77.733C204.682 76.5756 204.761 75.4445 205.366 74.3396C216.598 54.2423 229.988 43.0099 242.983 43.0099H243.404C258.766 43.273 274.076 59.2666 285.413 86.8873C291.148 100.882 295.594 116.981 298.645 134.5C298.619 134.5 298.619 134.474 298.592 134.447C299.908 141.944 300.934 149.652 301.723 157.596L301.512 157.701L301.802 157.991C303.091 171.722 303.617 185.454 303.354 199.238C303.196 208.208 302.722 216.994 301.959 225.622C281.415 242.221 256.004 258.74 228.068 273.55C218.887 278.417 209.706 282.941 200.657 287.124L200.237 287.308L198.132 288.255C190.609 291.675 183.164 294.805 175.825 297.699L174.589 298.172L173.037 298.777C171.8 299.251 170.59 299.698 169.354 300.171L168.354 300.54C166.855 301.092 165.382 301.618 163.909 302.144C163.725 302.223 163.541 302.302 163.356 302.355C147.626 307.958 132.658 312.167 119.006 314.797C86.0186 321.189 70.4721 316.297 66.9472 309.641ZM112.403 245.272C127.002 233.382 144.127 221.492 162.909 210.26C163.304 234.276 165.961 257.346 170.617 278.18C163.646 275.181 156.701 271.919 149.809 268.368C136.762 261.608 124.293 253.9 112.403 245.272ZM208.286 361.463C201.184 362.357 194.055 362.831 186.9 362.831C171.011 362.857 155.465 360.674 140.234 356.202C125.003 351.756 110.693 345.232 97.3562 336.657C96.4355 336.052 96.1462 335.236 96.4092 334.184C96.6986 333.158 97.3825 332.606 98.461 332.553C98.9082 332.553 99.3291 332.501 99.6974 332.474C107.116 331.948 114.481 330.975 121.794 329.528C138.787 326.24 157.701 320.637 177.482 313.087C178.35 312.745 179.245 312.772 180.113 313.166C180.981 313.534 181.586 314.166 181.954 315.034V315.086C189.609 333.737 199.053 347.863 209.654 356.833C210.522 357.57 210.785 358.49 210.469 359.595C210.154 360.674 209.417 361.305 208.286 361.463ZM278.39 317.191C266.552 340.471 251.979 353.545 237.853 353.282C222.491 352.993 207.155 336.999 195.817 309.378C195.475 308.51 195.475 307.642 195.817 306.748C196.186 305.88 196.791 305.248 197.659 304.88L198.027 304.722C198.79 304.38 199.579 304.328 200.394 304.564C221.597 310.509 242.509 313.613 262.107 313.613C264.238 313.613 266.342 313.587 268.446 313.508C270.893 313.429 273.313 313.271 275.68 313.087C276.759 313.035 277.601 313.456 278.206 314.35C278.811 315.271 278.89 316.191 278.39 317.191ZM283.493 297.146C278.311 297.883 273.129 298.356 267.894 298.514C253.847 298.909 239.931 297.804 226.147 295.173C225.253 295.015 224.753 294.489 224.622 293.595C224.49 292.701 224.832 292.069 225.621 291.648C228.778 290.07 231.935 288.439 235.091 286.756C256.188 275.655 276.443 263.107 295.804 249.165C296.462 248.665 297.172 248.639 297.882 249.086C298.592 249.533 298.882 250.165 298.724 250.98C296.435 265.264 292.989 279.285 288.412 293.016C287.623 295.41 285.992 296.778 283.493 297.146ZM307.983 310.299C306.721 311.64 305.458 312.956 304.143 314.218C301.907 316.481 299.592 318.664 297.224 320.768C296.462 321.452 295.699 321.479 294.883 320.874C294.094 320.295 293.91 319.532 294.305 318.638C294.568 318.112 294.804 317.586 295.041 317.059C296.014 314.876 296.988 312.64 297.908 310.352C298.145 309.773 298.566 309.405 299.171 309.273C301.512 308.668 303.801 308.01 306.037 307.274C306.957 306.958 307.694 307.221 308.22 308.037C308.72 308.852 308.667 309.615 307.983 310.299ZM341.312 257.688C340.497 259.714 339.681 261.739 338.787 263.738C338.655 264.001 338.524 264.291 338.392 264.554C332.921 275.076 323.74 283.362 311.482 289.149C310.114 289.781 308.851 289.623 307.668 288.65C306.51 287.676 306.142 286.44 306.537 284.993C310.772 269.578 313.823 253.926 315.691 238.038C316.085 234.855 317.506 232.198 319.952 230.094C324.977 225.727 329.685 221.36 334.026 217.046L334.078 216.994C334.578 216.494 335.157 216.152 335.841 215.968C336.498 215.784 337.182 215.784 337.866 215.941C338.55 216.126 339.129 216.441 339.655 216.941C340.155 217.415 340.497 217.993 340.707 218.677C344.995 232.908 345.232 246.14 341.312 257.688ZM344.627 180.008C344.337 180.534 343.943 180.955 343.443 181.245C342.917 181.56 342.365 181.718 341.786 181.745C341.181 181.771 340.628 181.639 340.102 181.35C339.576 181.087 339.155 180.692 338.84 180.192L338.208 179.193C333.079 171.354 327.423 163.936 321.241 156.912C320.452 156.018 320.321 155.018 320.794 153.94C321.294 152.861 322.136 152.335 323.319 152.335H323.372C338.235 152.335 346.021 155.992 348.388 160.49C350.335 164.225 349.73 170.775 344.627 180.008ZM352.65 201.921C352.624 202.473 352.361 202.815 351.808 202.92C351.256 203.026 350.861 202.815 350.651 202.315L350.098 200.974C349.704 200.079 349.783 199.264 350.361 198.475L350.966 197.686C351.703 196.739 352.755 196.87 352.755 197.949C352.729 199.316 352.703 200.527 352.65 201.921Z" fill="url(#paint0_linear_12_68)"/>
<defs>
<linearGradient id="paint0_linear_12_68" x1="186.938" y1="16.2234" x2="186.938" y2="377.622" gradientUnits="userSpaceOnUse">
<stop stop-color="#FF7A05"/>
<stop offset="1" stop-color="#994903"/>
</linearGradient>
</defs>
</svg>
